<svg xmlns="http://www.w3.org/2000/svg" width="496" height="896" class="svgbob"><style>.svgbob line, .svgbob path, .svgbob circle, .svgbob rect, .svgbob polygon {
    stroke: black;
    stroke-width: 2;
    stroke-opacity: 1;
    fill-opacity: 1;
    stroke-linecap: round;
    stroke-linejoin: miter;
}
.svgbob text {
    white-space: pre;
    fill: black;
    font-family: Iosevka Fixed, monospace;
    font-size: 14px;
}
.svgbob rect.backdrop {
    stroke: none;
    fill: white;
}
.svgbob .broken {
    stroke-dasharray: 8;
}
.svgbob .filled {
    fill: black;
}
.svgbob .bg_filled {
    fill: white;
    stroke-width: 1;
}
.svgbob .nofill {
    fill: white;
}
.svgbob .end_marked_arrow {
    marker-end: url(#arrow);
}
.svgbob .start_marked_arrow {
    marker-start: url(#arrow);
}
.svgbob .end_marked_diamond {
    marker-end: url(#diamond);
}
.svgbob .start_marked_diamond {
    marker-start: url(#diamond);
}
.svgbob .end_marked_circle {
    marker-end: url(#circle);
}
.svgbob .start_marked_circle {
    marker-start: url(#circle);
}
.svgbob .end_marked_open_circle {
    marker-end: url(#open_circle);
}
.svgbob .start_marked_open_circle {
    marker-start: url(#open_circle);
}
.svgbob .end_marked_big_open_circle {
    marker-end: url(#big_open_circle);
}
.svgbob .start_marked_big_open_circle {
    marker-start: url(#big_open_circle);
}<!--separator--></style><defs><marker id="arrow" viewBox="-2 -2 8 8" refX="4" refY="2" markerWidth="7" markerHeight="7" orient="auto-start-reverse"><polygon points="0,0 0,4 4,2 0,0"></polygon></marker><marker id="diamond" viewBox="-2 -2 8 8" refX="4" refY="2" markerWidth="7" markerHeight="7" orient="auto-start-reverse"><polygon points="0,2 2,0 4,2 2,4 0,2"></polygon></marker><marker id="circle" viewBox="0 0 8 8" refX="4" refY="4" markerWidth="7" markerHeight="7" orient="auto-start-reverse"><circle cx="4" cy="4" r="2" class="filled"></circle></marker><marker id="open_circle" viewBox="0 0 8 8" refX="4" refY="4" markerWidth="7" markerHeight="7" orient="auto-start-reverse"><circle cx="4" cy="4" r="2" class="bg_filled"></circle></marker><marker id="big_open_circle" viewBox="0 0 8 8" refX="4" refY="4" markerWidth="7" markerHeight="7" orient="auto-start-reverse"><circle cx="4" cy="4" r="3" class="bg_filled"></circle></marker></defs><rect class="backdrop" x="0" y="0" width="496" height="896"></rect><text x="2" y="12" >PlantVillage</text><text x="34" y="28" >images</text><line x1="80" y1="32" x2="88" y2="32" class="solid"></line><text x="90" y="28" >background</text><text x="66" y="44" >Apple</text><text x="98" y="60" >Apple</text><line x1="136" y1="64" x2="152" y2="64" class="solid"></line><text x="154" y="60" >Apple</text><line x1="192" y1="64" x2="200" y2="64" class="solid"></line><text x="202" y="60" >scab</text><text x="98" y="76" >Apple</text><line x1="136" y1="80" x2="152" y2="80" class="solid"></line><text x="154" y="76" >Black</text><line x1="192" y1="80" x2="200" y2="80" class="solid"></line><text x="202" y="76" >rot</text><text x="98" y="92" >Apple</text><line x1="136" y1="96" x2="152" y2="96" class="solid"></line><text x="154" y="92" >Cedar</text><line x1="192" y1="96" x2="200" y2="96" class="solid"></line><text x="202" y="92" >apple</text><line x1="240" y1="96" x2="248" y2="96" class="solid"></line><text x="250" y="92" >rust</text><text x="98" y="108" >Apple</text><line x1="136" y1="112" x2="152" y2="112" class="solid"></line><text x="154" y="108" >healthy</text><text x="66" y="124" >Corn</text><text x="98" y="140" >Corn</text><line x1="128" y1="144" x2="136" y2="144" class="solid"></line><text x="146" y="140" >maize</text><line x1="192" y1="144" x2="208" y2="144" class="solid"></line><text x="210" y="140" >Cercospora</text><line x1="288" y1="144" x2="296" y2="144" class="solid"></line><text x="298" y="140" >leaf</text><line x1="328" y1="144" x2="336" y2="144" class="solid"></line><text x="338" y="140" >spot</text><text x="98" y="156" >Corn</text><line x1="128" y1="160" x2="136" y2="160" class="solid"></line><text x="146" y="156" >maize</text><line x1="192" y1="160" x2="208" y2="160" class="solid"></line><text x="210" y="156" >Common</text><line x1="256" y1="160" x2="264" y2="160" class="solid"></line><text x="266" y="156" >rust</text><line x1="296" y1="160" x2="304" y2="160" class="solid"></line><text x="98" y="172" >Corn</text><line x1="128" y1="176" x2="136" y2="176" class="solid"></line><text x="146" y="172" >maize</text><line x1="192" y1="176" x2="208" y2="176" class="solid"></line><text x="210" y="172" >Northern</text><line x1="272" y1="176" x2="280" y2="176" class="solid"></line><text x="282" y="172" >Leaf</text><line x1="312" y1="176" x2="320" y2="176" class="solid"></line><text x="322" y="172" >Blight</text><text x="98" y="188" >Corn</text><line x1="128" y1="192" x2="136" y2="192" class="solid"></line><text x="146" y="188" >maize</text><line x1="192" y1="192" x2="208" y2="192" class="solid"></line><text x="210" y="188" >healthy</text><text x="66" y="204" >Grape</text><text x="98" y="220" >Grape</text><line x1="136" y1="224" x2="152" y2="224" class="solid"></line><text x="154" y="220" >Black</text><text x="202" y="220" >rot</text><text x="98" y="236" >Grape</text><line x1="136" y1="240" x2="152" y2="240" class="solid"></line><text x="154" y="236" >Esca</text><line x1="184" y1="240" x2="192" y2="240" class="solid"></line><text x="202" y="236" >Black</text><line x1="240" y1="240" x2="248" y2="240" class="solid"></line><text x="250" y="236" >Measles</text><path d="M 304,224 A 16,16 0,0,1 304,240" class="nofill"></path><text x="98" y="252" >Grape</text><line x1="136" y1="256" x2="152" y2="256" class="solid"></line><text x="154" y="252" >Leaf</text><line x1="184" y1="256" x2="192" y2="256" class="solid"></line><text x="194" y="252" >blight</text><line x1="240" y1="256" x2="248" y2="256" class="solid"></line><path d="M 256,240 A 16,16 0,0,0 256,256" class="nofill"></path><text x="258" y="252" >Isariopsis</text><line x1="336" y1="256" x2="344" y2="256" class="solid"></line><text x="346" y="252" >Leaf</text><line x1="376" y1="256" x2="384" y2="256" class="solid"></line><text x="386" y="252" >Spot</text><path d="M 416,240 A 16,16 0,0,1 416,256" class="nofill"></path><text x="98" y="268" >Grape</text><line x1="136" y1="272" x2="152" y2="272" class="solid"></line><text x="154" y="268" >healthy</text><text x="66" y="284" >Potato</text><text x="98" y="300" >Potato</text><line x1="144" y1="304" x2="160" y2="304" class="solid"></line><text x="162" y="300" >Early</text><line x1="200" y1="304" x2="208" y2="304" class="solid"></line><text x="210" y="300" >blight</text><text x="98" y="316" >Potato</text><line x1="144" y1="320" x2="160" y2="320" class="solid"></line><text x="162" y="316" >Late</text><line x1="192" y1="320" x2="200" y2="320" class="solid"></line><text x="202" y="316" >blight</text><text x="98" y="332" >Potato</text><line x1="144" y1="336" x2="160" y2="336" class="solid"></line><text x="162" y="332" >healthy</text><text x="66" y="348" >Strawberry</text><text x="98" y="364" >Strawberry</text><line x1="176" y1="368" x2="192" y2="368" class="solid"></line><text x="194" y="364" >Leaf</text><line x1="224" y1="368" x2="232" y2="368" class="solid"></line><text x="234" y="364" >scorch</text><text x="98" y="380" >Strawberry</text><line x1="176" y1="384" x2="192" y2="384" class="solid"></line><text x="194" y="380" >healthy</text><text x="66" y="396" >Tomato</text><text x="98" y="412" >Tomato</text><line x1="144" y1="416" x2="160" y2="416" class="solid"></line><text x="162" y="412" >Bacterial</text><line x1="232" y1="416" x2="240" y2="416" class="solid"></line><text x="242" y="412" >spot</text><text x="98" y="428" >Tomato</text><line x1="144" y1="432" x2="160" y2="432" class="solid"></line><text x="162" y="428" >Early</text><line x1="200" y1="432" x2="208" y2="432" class="solid"></line><text x="210" y="428" >blight</text><text x="98" y="444" >Tomato</text><line x1="144" y1="448" x2="160" y2="448" class="solid"></line><text x="162" y="444" >Late</text><line x1="192" y1="448" x2="200" y2="448" class="solid"></line><text x="202" y="444" >blight</text><text x="98" y="460" >Tomato</text><line x1="144" y1="464" x2="160" y2="464" class="solid"></line><text x="162" y="460" >Leaf</text><line x1="192" y1="464" x2="200" y2="464" class="solid"></line><text x="202" y="460" >Mold</text><text x="98" y="476" >Tomato</text><line x1="144" y1="480" x2="160" y2="480" class="solid"></line><text x="162" y="476" >Septoria</text><line x1="224" y1="480" x2="232" y2="480" class="solid"></line><text x="234" y="476" >leaf</text><line x1="264" y1="480" x2="272" y2="480" class="solid"></line><text x="274" y="476" >spot</text><text x="98" y="492" >Tomato</text><line x1="144" y1="496" x2="160" y2="496" class="solid"></line><text x="162" y="492" >Spider</text><line x1="208" y1="496" x2="216" y2="496" class="solid"></line><text x="218" y="492" >mites</text><text x="266" y="492" >Tw</text><line x1="296" y1="488" x2="284" y2="488" class="solid end_marked_open_circle"></line><text x="298" y="492" >spotted</text><line x1="352" y1="496" x2="360" y2="496" class="solid"></line><text x="362" y="492" >spider</text><line x1="408" y1="496" x2="416" y2="496" class="solid"></line><text x="418" y="492" >mite</text><text x="98" y="508" >Tomato</text><line x1="144" y1="512" x2="160" y2="512" class="solid"></line><text x="162" y="508" >Target</text><line x1="208" y1="512" x2="216" y2="512" class="solid"></line><text x="218" y="508" >Spot</text><text x="98" y="524" >Tomato</text><line x1="144" y1="528" x2="160" y2="528" class="solid"></line><text x="162" y="524" >Tomato</text><line x1="208" y1="528" x2="216" y2="528" class="solid"></line><text x="218" y="524" >Yellow</text><line x1="264" y1="528" x2="272" y2="528" class="solid"></line><text x="274" y="524" >Leaf</text><line x1="304" y1="528" x2="312" y2="528" class="solid"></line><text x="314" y="524" >Curl</text><line x1="344" y1="528" x2="352" y2="528" class="solid"></line><text x="354" y="524" >Virus</text><text x="98" y="540" >Tomato</text><line x1="144" y1="544" x2="160" y2="544" class="solid"></line><text x="162" y="540" >Tomato</text><line x1="208" y1="544" x2="216" y2="544" class="solid"></line><text x="218" y="540" >mosaic</text><line x1="264" y1="544" x2="272" y2="544" class="solid"></line><text x="274" y="540" >virus</text><text x="98" y="556" >Tomato</text><line x1="144" y1="560" x2="160" y2="560" class="solid"></line><text x="162" y="556" >healthy</text><text x="34" y="572" >images</text><line x1="80" y1="576" x2="88" y2="576" class="solid"></line><text x="90" y="572" >evaluation</text><text x="66" y="588" >Blueberry</text><text x="98" y="604" >Blueberry</text><line x1="168" y1="608" x2="184" y2="608" class="solid"></line><text x="186" y="604" >healthy</text><text x="66" y="620" >Cherry</text><text x="98" y="636" >Cherry</text><line x1="144" y1="640" x2="152" y2="640" class="solid"></line><text x="162" y="636" >including</text><line x1="232" y1="640" x2="240" y2="640" class="solid"></line><text x="242" y="636" >sour</text><line x1="280" y1="640" x2="296" y2="640" class="solid"></line><text x="298" y="636" >Powdery</text><line x1="352" y1="640" x2="360" y2="640" class="solid"></line><text x="362" y="636" >mildew</text><text x="98" y="652" >Cherry</text><line x1="144" y1="656" x2="152" y2="656" class="solid"></line><text x="162" y="652" >including</text><line x1="232" y1="656" x2="240" y2="656" class="solid"></line><text x="242" y="652" >sour</text><line x1="280" y1="656" x2="296" y2="656" class="solid"></line><text x="298" y="652" >healthy</text><line x1="68" y1="668" x2="68" y2="664" class="solid end_marked_big_open_circle"></line><text x="74" y="668" >range</text><text x="98" y="684" >Orange</text><line x1="144" y1="688" x2="160" y2="688" class="solid"></line><text x="162" y="684" >Haunglongbing</text><line x1="264" y1="688" x2="272" y2="688" class="solid"></line><path d="M 280,672 A 16,16 0,0,0 280,688" class="nofill"></path><text x="282" y="684" >Citrus</text><line x1="328" y1="688" x2="336" y2="688" class="solid"></line><text x="338" y="684" >greening</text><path d="M 400,672 A 16,16 0,0,1 400,688" class="nofill"></path><text x="66" y="700" >Papper</text><text x="98" y="716" >Pepper</text><line x1="144" y1="720" x2="160" y2="720" class="solid"></line><text x="162" y="716" >Bacterial</text><line x1="232" y1="720" x2="240" y2="720" class="solid"></line><text x="242" y="716" >spot</text><text x="98" y="732" >Pepper</text><line x1="144" y1="736" x2="160" y2="736" class="solid"></line><text x="162" y="732" >healthy</text><text x="66" y="748" >Peach</text><text x="98" y="764" >Peach</text><line x1="136" y1="768" x2="152" y2="768" class="solid"></line><text x="154" y="764" >Bacterial</text><line x1="224" y1="768" x2="232" y2="768" class="solid"></line><text x="234" y="764" >spot</text><text x="98" y="780" >Peach</text><line x1="136" y1="784" x2="152" y2="784" class="solid"></line><text x="154" y="780" >healthy</text><text x="66" y="796" >Raspberry</text><text x="98" y="812" >Raspberry</text><line x1="168" y1="816" x2="184" y2="816" class="solid"></line><text x="186" y="812" >healthy</text><text x="66" y="828" >Soybean</text><text x="98" y="844" >Soybean</text><line x1="152" y1="848" x2="168" y2="848" class="solid"></line><text x="170" y="844" >healthy</text><text x="66" y="860" >Squash</text><text x="98" y="876" >Squash</text><line x1="144" y1="880" x2="160" y2="880" class="solid"></line><text x="162" y="876" >Powdery</text><line x1="216" y1="880" x2="224" y2="880" class="solid"></line><text x="226" y="876" >mildew</text><text x="378" y="140" >Gray</text><line x1="408" y1="144" x2="416" y2="144" class="solid"></line><text x="418" y="140" >leaf</text><line x1="448" y1="144" x2="456" y2="144" class="solid"></line><text x="458" y="140" >spot</text><g><line x1="4" y1="16" x2="4" y2="568" class="solid"></line><line x1="4" y1="24" x2="24" y2="24" class="solid"></line><line x1="4" y1="568" x2="24" y2="568" class="solid"></line></g><g><line x1="36" y1="32" x2="36" y2="392" class="solid"></line><line x1="36" y1="40" x2="56" y2="40" class="solid"></line><line x1="36" y1="120" x2="56" y2="120" class="solid"></line><line x1="36" y1="200" x2="56" y2="200" class="solid"></line><line x1="36" y1="280" x2="56" y2="280" class="solid"></line><line x1="36" y1="344" x2="56" y2="344" class="solid"></line><line x1="36" y1="392" x2="56" y2="392" class="solid"></line></g><g><line x1="68" y1="48" x2="68" y2="104" class="solid"></line><line x1="68" y1="56" x2="88" y2="56" class="solid"></line><line x1="68" y1="72" x2="88" y2="72" class="solid"></line><line x1="68" y1="88" x2="88" y2="88" class="solid"></line><line x1="68" y1="104" x2="88" y2="104" class="solid"></line></g><g><line x1="68" y1="128" x2="68" y2="184" class="solid"></line><line x1="68" y1="136" x2="88" y2="136" class="solid"></line><line x1="68" y1="152" x2="88" y2="152" class="solid"></line><line x1="68" y1="168" x2="88" y2="168" class="solid"></line><line x1="68" y1="184" x2="88" y2="184" class="solid"></line></g><g><path d="M 144,128 A 16,16 0,0,0 144,144" class="nofill"></path><path d="M 144,144 A 16,16 0,0,0 144,160" class="nofill"></path><path d="M 144,160 A 16,16 0,0,0 144,176" class="nofill"></path><path d="M 144,176 A 16,16 0,0,0 144,192" class="nofill"></path></g><g><path d="M 184,128 A 16,16 0,0,1 184,144" class="nofill"></path><path d="M 184,144 A 16,16 0,0,1 184,160" class="nofill"></path><path d="M 184,160 A 16,16 0,0,1 184,176" class="nofill"></path><path d="M 184,176 A 16,16 0,0,1 184,192" class="nofill"></path></g><g><line x1="68" y1="208" x2="68" y2="264" class="solid"></line><line x1="68" y1="216" x2="88" y2="216" class="solid"></line><line x1="68" y1="232" x2="88" y2="232" class="solid"></line><line x1="68" y1="248" x2="88" y2="248" class="solid"></line><line x1="68" y1="264" x2="88" y2="264" class="solid"></line></g><g><line x1="192" y1="224" x2="200" y2="224" class="solid"></line><path d="M 200,224 A 16,16 0,0,0 200,240" class="nofill"></path></g><g><line x1="68" y1="288" x2="68" y2="328" class="solid"></line><line x1="68" y1="296" x2="88" y2="296" class="solid"></line><line x1="68" y1="312" x2="88" y2="312" class="solid"></line><line x1="68" y1="328" x2="88" y2="328" class="solid"></line></g><g><line x1="68" y1="352" x2="68" y2="376" class="solid"></line><line x1="68" y1="360" x2="88" y2="360" class="solid"></line><line x1="68" y1="376" x2="88" y2="376" class="solid"></line></g><g><line x1="68" y1="400" x2="68" y2="552" class="solid"></line><line x1="68" y1="408" x2="88" y2="408" class="solid"></line><line x1="68" y1="424" x2="88" y2="424" class="solid"></line><line x1="68" y1="440" x2="88" y2="440" class="solid"></line><line x1="68" y1="456" x2="88" y2="456" class="solid"></line><line x1="68" y1="472" x2="88" y2="472" class="solid"></line><line x1="68" y1="488" x2="88" y2="488" class="solid"></line><line x1="68" y1="504" x2="88" y2="504" class="solid"></line><line x1="68" y1="520" x2="88" y2="520" class="solid"></line><line x1="68" y1="536" x2="88" y2="536" class="solid"></line><line x1="68" y1="552" x2="88" y2="552" class="solid"></line></g><g><line x1="36" y1="576" x2="36" y2="856" class="solid"></line><line x1="36" y1="584" x2="56" y2="584" class="solid"></line><line x1="36" y1="616" x2="56" y2="616" class="solid"></line><line x1="36" y1="664" x2="56" y2="664" class="solid"></line><line x1="36" y1="696" x2="56" y2="696" class="solid"></line><line x1="36" y1="744" x2="56" y2="744" class="solid"></line><line x1="36" y1="792" x2="56" y2="792" class="solid"></line><line x1="36" y1="824" x2="56" y2="824" class="solid"></line><line x1="36" y1="856" x2="56" y2="856" class="solid"></line></g><g><line x1="68" y1="592" x2="68" y2="600" class="solid"></line><line x1="68" y1="600" x2="88" y2="600" class="solid"></line></g><g><line x1="68" y1="624" x2="68" y2="648" class="solid"></line><line x1="68" y1="632" x2="88" y2="632" class="solid"></line><line x1="68" y1="648" x2="88" y2="648" class="solid"></line></g><g><path d="M 160,624 A 16,16 0,0,0 160,640" class="nofill"></path><path d="M 160,640 A 16,16 0,0,0 160,656" class="nofill"></path></g><g><path d="M 272,624 A 16,16 0,0,1 272,640" class="nofill"></path><path d="M 272,640 A 16,16 0,0,1 272,656" class="nofill"></path></g><g><line x1="68" y1="672" x2="68" y2="680" class="solid"></line><line x1="68" y1="680" x2="88" y2="680" class="solid"></line></g><g><line x1="68" y1="704" x2="68" y2="728" class="solid"></line><line x1="68" y1="712" x2="88" y2="712" class="solid"></line><line x1="68" y1="728" x2="88" y2="728" class="solid"></line></g><g><line x1="68" y1="752" x2="68" y2="776" class="solid"></line><line x1="68" y1="760" x2="88" y2="760" class="solid"></line><line x1="68" y1="776" x2="88" y2="776" class="solid"></line></g><g><line x1="68" y1="800" x2="68" y2="808" class="solid"></line><line x1="68" y1="808" x2="88" y2="808" class="solid"></line></g><g><line x1="68" y1="832" x2="68" y2="840" class="solid"></line><line x1="68" y1="840" x2="88" y2="840" class="solid"></line></g><g><line x1="68" y1="864" x2="68" y2="872" class="solid"></line><line x1="68" y1="872" x2="88" y2="872" class="solid"></line></g></svg>